<svg
	viewBox="0 0 16 16"
	width="16"
	height="16"
	xmlns="http://www.w3.org/2000/svg"
>
	<path
		d="m 13.704533,7.7084395 a 0.75,0.75 0 0 1 -0.220703,0.5292969 0.75,0.75 0 0 1 -1.060547,0 L 8.7494551,4.5619551 v 8.6874999 a 0.75,0.75 0 0 1 -0.75,0.75 0.75,0.75 0 0 1 -0.75,-0.75 V 4.5619551 l -3.673828,3.6757813 a 0.75,0.75 0 0 1 -1.060547,0 0.75,0.75 0 0 1 0,-1.0605469 l 4.953125,-4.9570314 a 0.75,0.75 0 0 1 0.00195,0 0.75,0.75 0 0 1 0,-0.002 0.75,0.75 0 0 1 0.5293,-0.218703 0.75,0.75 0 0 1 0.5273438,0.21875 0.75,0.75 0 0 1 0.00195,0 0.75,0.75 0 0 1 0,0.002 0.75,0.75 0 0 1 0.00195,0 L 13.48383,7.1771895 a 0.75,0.75 0 0 1 0.220703,0.53125 z"
	/>
</svg>
