<svg
	viewBox="0 0 16 16"
	width="16"
	height="16"
	xmlns="http://www.w3.org/2000/svg"
>
	<path
		d="m 8.2910156,2.2949219 a 0.75,0.75 0 0 0 -0.5292969,0.2207031 0.75,0.75 0 0 0 0,1.0605469 L 11.4375,7.25 H 2.75 A 0.75,0.75 0 0 0 2,8 0.75,0.75 0 0 0 2.75,8.75 h 8.6875 l -3.6757813,3.673828 a 0.75,0.75 0 0 0 0,1.060547 0.75,0.75 0 0 0 1.0605469,0 L 13.779297,8.53125 a 0.75,0.75 0 0 0 0,-0.00195 0.75,0.75 0 0 0 0.002,0 A 0.75,0.75 0 0 0 14,8 0.75,0.75 0 0 0 13.78125,7.4726562 a 0.75,0.75 0 0 0 0,-0.00195 0.75,0.75 0 0 0 -0.002,0 0.75,0.75 0 0 0 0,-0.00195 L 8.8222656,2.515625 a 0.75,0.75 0 0 0 -0.53125,-0.2207031 z"
	/>
</svg>
