<svg
	viewBox="0 0 16 16"
	width="16"
	height="16"
	xmlns="http://www.w3.org/2000/svg"
>
	<path
		d="m 13.704533,8.2904706 a 0.75,0.75 0 0 0 -0.220703,-0.5292969 0.75,0.75 0 0 0 -1.060547,0 L 8.7494551,11.436955 V 2.7494551 a 0.75,0.75 0 0 0 -0.75,-0.75 0.75,0.75 0 0 0 -0.75,0.75 V 11.436955 L 3.5756271,7.7611737 a 0.75,0.75 0 0 0 -1.060547,0 0.75,0.75 0 0 0 0,1.0605469 l 4.953125,4.9570314 a 0.75,0.75 0 0 0 0.00195,0 0.75,0.75 0 0 0 0,0.002 0.75,0.75 0 0 0 0.5293,0.218703 0.75,0.75 0 0 0 0.5273438,-0.21875 0.75,0.75 0 0 0 0.00195,0 0.75,0.75 0 0 0 0,-0.002 0.75,0.75 0 0 0 0.00195,0 L 13.48383,8.8217206 a 0.75,0.75 0 0 0 0.220703,-0.53125 z"
	/>
</svg>
