<svg
	viewBox="0 0 16 16"
	width="16"
	height="16"
	xmlns="http://www.w3.org/2000/svg"
>
	<path
		d="m 7.7089844,2.2949219 a 0.75,0.75 0 0 1 0.5292969,0.2207031 0.75,0.75 0 0 1 0,1.0605469 L 4.5625,7.25 H 13.25 A 0.75,0.75 0 0 1 14,8 0.75,0.75 0 0 1 13.25,8.75 H 4.5625 l 3.6757813,3.673828 a 0.75,0.75 0 0 1 0,1.060547 0.75,0.75 0 0 1 -1.0605469,0 L 2.220703,8.53125 a 0.75,0.75 0 0 1 0,-0.00195 0.75,0.75 0 0 1 -0.002,0 A 0.75,0.75 0 0 1 2,8 0.75,0.75 0 0 1 2.21875,7.4726562 a 0.75,0.75 0 0 1 0,-0.00195 0.75,0.75 0 0 1 0.002,0 0.75,0.75 0 0 1 0,-0.00195 L 7.1777344,2.515625 a 0.75,0.75 0 0 1 0.53125,-0.2207031 z"
	/>
</svg>
