<svg
	viewBox="0 0 16 16"
	width="16"
	height="16"
	xmlns="http://www.w3.org/2000/svg"
>
	<path
		d="m 2,3.4919325 v 7.4209205 c 0,0.277128 0.223969,0.500698 0.4998605,0.512044 1.967068,0.0809 3.8120049,0.637065 5.4238596,1.55703 0.042217,0.0241 0.1103437,0.0241 0.1525608,-1e-6 1.6118547,-0.919964 3.4567921,-1.47613 5.4238601,-1.557029 C 13.776032,11.413551 14,11.189981 14,10.912853 V 3.4919325 c 0,-0.2771279 -0.223969,-0.5028709 -0.499861,-0.4915244 -1.992626,0.081949 -3.8599263,0.651598 -5.4865692,1.5930725 -0.0075,0.00434 -0.019643,0.00434 -0.027141,-6e-7 C 6.3597862,3.6520056 4.4924855,3.0823572 2.4998594,3.000408 2.2239685,2.9890616 2,3.2148046 2,3.4919325 Z M 12.990234,4.0987452 V 10.35687 c 0,0.04617 -0.03719,0.08645 -0.08304,0.09019 -1.386435,0.113246 -3.1235083,0.416145 -4.8474934,1.301208 V 5.6547345 C 10.33013,4.3289137 11.538103,4.1817271 12.941052,4.0530957 c 0.02716,-0.00249 0.04918,0.017955 0.04918,0.045649 z"
	/>
</svg>
