<svg
	viewBox="0 0 16 16"
	width="16"
	height="16"
	xmlns="http://www.w3.org/2000/svg"
>
	<path
		d="M 5 2 C 4.446 2 4 2.446 4 3 L 4 4 L 3 4 C 2.446 4 2 4.446 2 5 L 2 13 C 2 13.554 2.446 14 3 14 L 13 14 C 13.554 14 14 13.554 14 13 L 14 5 C 14 4.446 13.554 4 13 4 L 12 4 L 12 3 C 12 2.446 11.554 2 11 2 C 10.446 2 10 2.446 10 3 L 10 4 L 6 4 L 6 3 C 6 2.446 5.554 2 5 2 z M 6.5 6.5 A 1 1 0 0 1 7.2070312 6.7929688 L 8 7.5859375 L 8.7929688 6.7929688 A 1 1 0 0 1 9.5 6.5 A 1 1 0 0 1 10.207031 6.7929688 A 1 1 0 0 1 10.207031 8.2070312 L 9.4140625 9 L 10.207031 9.7929688 A 1 1 0 0 1 10.207031 11.207031 A 1 1 0 0 1 8.7929688 11.207031 L 8 10.414062 L 7.2070312 11.207031 A 1 1 0 0 1 5.7929688 11.207031 A 1 1 0 0 1 5.7929688 9.7929688 L 6.5859375 9 L 5.7929688 8.2070312 A 1 1 0 0 1 5.7929688 6.7929688 A 1 1 0 0 1 6.5 6.5 z " />
</svg>
