<svg
	width="16"
	height="16"
	viewBox="0 0 16 16"
	xmlns="http://www.w3.org/2000/svg"
>
	<path
		d="M 3 2 C 2.446 2 2 2.446 2 3 L 2 13 C 2 13.554 2.446 14 3 14 L 13 14 C 13.554 14 14 13.554 14 13 L 14 3 C 14 2.446 13.554 2 13 2 L 3 2 z M 8.265625 5.9882812 C 8.7950307 5.9882812 9.3300781 6.2423469 9.3300781 6.8476562 C 9.3300781 6.9956662 9.2885536 7.1398413 9.2207031 7.2792969 C 9.152874 7.4187734 9.0573237 7.5520826 8.9472656 7.6796875 C 8.8111273 7.8405079 8.5157718 8.0895714 8.2539062 8.296875 C 8.044702 8.4629074 7.8574261 8.6025389 7.7910156 8.6523438 L 9.0605469 8.6523438 L 9.3984375 8.2832031 L 9.4453125 8.2832031 L 9.2441406 9.2695312 L 7.0917969 9.2695312 L 7.09375 9.0175781 C 7.09375 9.0175781 7.4142804 8.6794716 7.421875 8.671875 C 8.091696 7.9650619 8.6171875 7.4043322 8.6171875 6.8222656 C 8.6171875 6.4612749 8.4771449 6.2363281 8.2304688 6.2363281 C 7.9837924 6.2363281 7.8300781 6.4865671 7.8300781 6.8613281 L 7.828125 7.0507812 L 7.1816406 7.0507812 C 7.1693096 7.0147283 7.1601563 6.9398073 7.1601562 6.8691406 C 7.1601562 6.2851753 7.7291047 5.9882813 8.265625 5.9882812 z M 3 6.0585938 L 4.7753906 6.0585938 C 6.1503014 6.0585938 6.7578125 6.8380228 6.7578125 7.9902344 C 6.7578125 9.1425044 5.8101526 10.011719 4.7636719 10.011719 L 3 10.011719 L 3 9.7636719 L 3.3730469 9.7636719 L 3.5566406 9.5175781 L 3.5566406 6.5527344 L 3.3730469 6.3066406 L 3 6.3066406 L 3 6.0585938 z M 9.8085938 6.0585938 L 11.818359 6.0585938 L 11.818359 6.3066406 L 11.333984 6.3066406 L 11.162109 6.5527344 L 11.162109 9.6425781 L 12.095703 9.6425781 L 12.908203 8.7753906 L 13 8.7753906 L 12.748047 10.011719 L 9.8085938 10.011719 L 9.8085938 9.7636719 L 10.179688 9.7636719 L 10.365234 9.515625 L 10.365234 6.5527344 L 10.179688 6.3066406 L 9.8085938 6.3066406 L 9.8085938 6.0585938 z M 4.7480469 6.3046875 C 4.6200332 6.3046875 4.5199152 6.3273264 4.453125 6.3496094 C 4.414151 6.3663004 4.3813312 6.3778192 4.3535156 6.3945312 L 4.3515625 9.5175781 C 4.4676441 9.6351911 4.6973784 9.6718751 4.8476562 9.671875 C 5.6214097 9.671875 5.8769531 9.1819537 5.8769531 8.1855469 C 5.8769531 7.1390683 5.4661204 6.3046875 4.7480469 6.3046875 z M 7.1875 9.640625 L 9.3144531 9.640625 L 9.3144531 9.7949219 C 9.2300995 9.8792738 9.1839629 9.9273656 9.0996094 10.011719 L 6.9726562 10.011719 L 6.9726562 9.8574219 C 7.0570098 9.7730688 7.1031464 9.7249764 7.1875 9.640625 z " />
</svg>
