<?xml version="1.0" encoding="UTF-8" standalone="no"?>
<svg
   width="16"
   height="16"
   viewBox="0 0 16 16"
   version="1.1"
   id="svg1"
   xmlns="http://www.w3.org/2000/svg"
   xmlns:svg="http://www.w3.org/2000/svg">
  <defs
     id="defs1" />
  <path
     id="path1"
     d="M 2.5 3 C 1.669 3 1 3.669 1 4.5 L 1 11.5 C 1 12.331 1.669 13 2.5 13 L 13.5 13 C 14.331 13 15 12.331 15 11.5 L 15 4.5 C 15 3.669 14.331 3 13.5 3 L 2.5 3 z M 3.9550781 5.2519531 A 0.75 0.75 0 0 1 4.3359375 5.3300781 L 8 7.1621094 L 11.664062 5.3300781 A 0.75 0.75 0 0 1 12.669922 5.6640625 A 0.75 0.75 0 0 1 12.335938 6.6699219 L 8.3359375 8.6699219 A 0.750075 0.750075 0 0 1 7.6640625 8.6699219 L 3.6640625 6.6699219 A 0.75 0.75 0 0 1 3.3300781 5.6640625 A 0.75 0.75 0 0 1 3.9550781 5.2519531 z " />
</svg>
