<svg
	width="16"
	height="16"
	viewBox="0 0 16 16"
	xmlns="http://www.w3.org/2000/svg"
>
	<path
		d="M 1.5 0 C 0.669 0 0 0.669 0 1.5 L 0 14.5 C 0 15.331 0.669 16 1.5 16 L 6.0664062 16 L 6.0664062 10.445312 L 4.4179688 10.445312 L 4.4179688 8 L 6.0664062 8 L 6.0664062 6.9472656 C 6.0664063 4.2243216 7.2994083 2.9609375 9.9726562 2.9609375 C 10.479472 2.9609375 11.355131 3.0607643 11.712891 3.1601562 L 11.712891 5.3769531 C 11.524059 5.3570811 11.194565 5.3457031 10.787109 5.3457031 C 9.4753334 5.3457031 8.96875 5.8428616 8.96875 7.1347656 L 8.96875 8 L 11.582031 8 L 11.132812 10.445312 L 8.96875 10.445312 L 8.96875 16 L 14.5 16 C 15.331 16 16 15.331 16 14.5 L 16 1.5 C 16 0.669 15.331 0 14.5 0 L 1.5 0 z " />
</svg>
