<svg
	viewBox="0 0 16 16"
	width="16"
	height="16"
	xmlns="http://www.w3.org/2000/svg"
>
	<path
		d="M 6.5 1.5996094 C 5.4013523 1.5996098 4.5 2.5009612 4.5 3.5996094 C 4.5 3.7755046 4.5243912 3.9424469 4.5703125 4.0996094 L 3 4.0996094 C 2.446 4.0996094 2 4.5456094 2 5.0996094 L 2 5.5996094 C 2 6.1536094 2.446 6.5996094 3 6.5996094 L 13 6.5996094 C 13.554 6.5996094 14 6.1536094 14 5.5996094 L 14 5.0996094 C 14 4.5456094 13.554 4.0996094 13 4.0996094 L 11.429688 4.0996094 C 11.475608 3.9424471 11.5 3.7755048 11.5 3.5996094 C 11.5 2.5009612 10.598647 1.5996098 9.5 1.5996094 C 8.9047626 1.5996092 8.3674397 1.8640596 8 2.28125 C 7.6325603 1.86406 7.0952371 1.5996092 6.5 1.5996094 z M 6.5 2.5996094 C 7.0583075 2.5996092 7.5 3.0413022 7.5 3.5996094 L 7.5 4.0996094 L 5.6308594 4.0996094 C 5.5472475 3.9530192 5.5 3.7827867 5.5 3.5996094 C 5.5 3.0413027 5.9416925 2.5996096 6.5 2.5996094 z M 9.5 2.5996094 C 10.058306 2.5996096 10.5 3.0413027 10.5 3.5996094 C 10.5 3.7827867 10.452753 3.9530192 10.369141 4.0996094 L 8.5 4.0996094 L 8.5 3.5996094 C 8.5 3.0413022 8.9416925 2.5996092 9.5 2.5996094 z M 3 7.5996094 L 3 12.599609 C 3 13.153609 3.446 13.599609 4 13.599609 L 7.5 13.599609 L 7.5 7.5996094 L 3 7.5996094 z M 8.5 7.5996094 L 8.5 13.599609 L 12 13.599609 C 12.554 13.599609 13 13.153609 13 12.599609 L 13 7.5996094 L 8.5 7.5996094 z "
	/>
</svg>
