<svg
	viewBox="0 0 16 16"
	width="16"
	height="16"
	xmlns="http://www.w3.org/2000/svg"
>
	<path
		d="M 8 2 A 6 6 0 0 0 2 8 A 6 6 0 0 0 8 14 A 6 6 0 0 0 14 8 A 6 6 0 0 0 8 2 z M 8.2695312 3.8496094 A 0.93773234 0.93773234 0 0 1 9.2070312 4.7871094 A 0.93773234 0.93773234 0 0 1 8.2695312 5.7246094 A 0.93773234 0.93773234 0 0 1 7.3320312 4.7871094 A 0.93773234 0.93773234 0 0 1 8.2695312 3.8496094 z M 9.0800781 6.3144531 L 8.1953125 10.246094 C 7.8827315 11.412664 8.9765625 10.96875 8.9765625 10.96875 L 8.8007812 11.490234 C 8.8007812 11.490234 6.069056 12.689036 6.5996094 10.708984 L 7.3046875 7.7382812 C 7.3668102 7.1667528 6.2675781 7.3339844 6.2675781 7.3339844 L 6.4023438 6.78125 L 9.0800781 6.3144531 z " />
</svg>
