<svg
	width="16"
	height="16"
	viewBox="0 0 16 16"
	xmlns="http://www.w3.org/2000/svg"
>
	<path
		d="M 1.5 0 C 0.669 0 0 0.669 0 1.5 L 0 14.5 C 0 15.331 0.669 16 1.5 16 L 14.5 16 C 15.331 16 16 15.331 16 14.5 L 16 1.5 C 16 0.669 15.331 0 14.5 0 L 1.5 0 z M 7.9980469 2.09375 C 9.6018222 2.0937527 9.8017264 2.1002401 10.431641 2.1289062 C 11.060446 2.1577008 11.490643 2.258232 11.867188 2.4042969 C 12.256037 2.5550378 12.583555 2.7573839 12.912109 3.0859375 C 13.240662 3.4142449 13.444346 3.7423787 13.595703 4.1308594 C 13.740906 4.5064196 13.839609 4.9356483 13.869141 5.5644531 C 13.897431 6.1944884 13.904297 6.3958709 13.904297 8 C 13.904297 9.6041291 13.897441 9.8055115 13.869141 10.435547 C 13.839609 11.064106 13.740906 11.493457 13.595703 11.869141 C 13.444346 12.257498 13.240662 12.587708 12.912109 12.916016 C 12.583924 13.244569 12.255544 13.446792 11.867188 13.597656 C 11.491381 13.743721 11.062399 13.842294 10.433594 13.871094 C 9.8035581 13.899784 9.6022991 13.908203 7.9980469 13.908203 C 6.3940409 13.908203 6.1925354 13.899764 5.5625 13.871094 C 4.9338183 13.842299 4.5047125 13.743721 4.1289062 13.597656 C 3.7406716 13.446792 3.4121688 13.244569 3.0839844 12.916016 C 2.7555538 12.587708 2.5533308 12.257622 2.4023438 11.869141 C 2.2564021 11.493581 2.1558711 11.064352 2.1269531 10.435547 C 2.0984071 9.8055115 2.0917969 9.6041291 2.0917969 8 C 2.0917969 6.3958709 2.0987741 6.1944885 2.1269531 5.5644531 C 2.1552554 4.9358944 2.2559097 4.5065426 2.4023438 4.1308594 C 2.5536998 3.7425017 2.7554308 3.4142449 3.0839844 3.0859375 C 3.4122919 2.7575069 3.7404255 2.5551608 4.1289062 2.4042969 C 4.5044664 2.258232 4.9336951 2.1577003 5.5625 2.1289062 C 6.1924144 2.1002358 6.3947635 2.0937527 7.9980469 2.09375 z M 7.46875 3.15625 C 6.3679109 3.1574805 6.1562103 3.1648424 5.6113281 3.1894531 C 5.0354365 3.2159097 4.723832 3.3133158 4.515625 3.3945312 C 4.2399845 3.5018342 4.0426679 3.6292072 3.8359375 3.8359375 C 3.6292072 4.0426679 3.5015881 4.2399845 3.3945312 4.515625 C 3.3136848 4.723832 3.2177396 5.0354364 3.1914062 5.6113281 C 3.1631033 6.2339802 3.15625 6.4207435 3.15625 7.9980469 C 3.15625 9.5753502 3.1631038 9.7621133 3.1914062 10.384766 C 3.2176167 10.960657 3.3136849 11.272508 3.3945312 11.480469 C 3.5018341 11.756232 3.6292072 11.953425 3.8359375 12.160156 C 4.0426679 12.366886 4.2399845 12.494506 4.515625 12.601562 C 4.7239551 12.682409 5.0354365 12.778108 5.6113281 12.804688 C 6.2339803 12.832947 6.4208666 12.839844 7.9980469 12.839844 C 9.5751041 12.839844 9.7621135 12.832987 10.384766 12.804688 C 10.960658 12.778353 11.274461 12.682783 11.482422 12.601562 C 11.758186 12.494506 11.953426 12.366886 12.160156 12.160156 C 12.366886 11.953548 12.496459 11.758063 12.603516 11.482422 C 12.684362 11.274461 12.780311 10.960658 12.806641 10.384766 C 12.834901 9.7621137 12.841797 9.5763189 12.841797 8 C 12.841797 6.4236811 12.834941 6.2359333 12.806641 5.6132812 C 12.780431 5.0373895 12.684366 4.725539 12.603516 4.5175781 C 12.496213 4.2419377 12.366886 4.0446209 12.160156 3.8378906 C 11.953549 3.6311602 11.758063 3.5035412 11.482422 3.3964844 C 11.274215 3.3156381 10.960658 3.2196934 10.384766 3.1933594 C 9.7619904 3.1650564 9.5751041 3.1582031 7.9980469 3.1582031 C 7.8009147 3.1582031 7.6260127 3.1579569 7.46875 3.1582031 L 7.46875 3.15625 z M 11.152344 4.1386719 C 11.543655 4.1386719 11.861328 4.4563453 11.861328 4.8476562 C 11.861328 5.2389674 11.543655 5.5566406 11.152344 5.5566406 C 10.761033 5.5566406 10.443359 5.2389674 10.443359 4.8476562 C 10.443359 4.4562222 10.761033 4.1386719 11.152344 4.1386719 z M 7.9980469 4.9667969 C 9.6731499 4.9668299 11.03125 6.3248893 11.03125 8 C 11.03125 9.6751311 9.673178 11.033203 7.9980469 11.033203 C 6.3229158 11.033203 4.9648438 9.6751311 4.9648438 8 C 4.9648437 6.3248894 6.322944 4.9668301 7.9980469 4.9667969 z M 7.9980469 6.03125 C 6.9106206 6.03125 6.0292969 6.9125737 6.0292969 8 C 6.0292969 9.0873032 6.9106206 9.96875 7.9980469 9.96875 C 9.0853501 9.96875 9.96875 9.0873032 9.96875 8 C 9.96875 6.9125737 9.0853501 6.03125 7.9980469 6.03125 z "
	/>
</svg>
