<svg
	width="16"
	height="16"
	viewBox="0 0 16 16"
	xmlns="http://www.w3.org/2000/svg"
>
	<path
		d="M 1.5 0 C 0.669 0 0 0.669 0 1.5 L 0 14.5 C 0 15.331 0.669 16 1.5 16 L 14.5 16 C 15.331 16 16 15.331 16 14.5 L 16 1.5 C 16 0.669 15.331 0 14.5 0 L 1.5 0 z M 3.6328125 2.2226562 C 4.4122107 2.2226562 5.0429687 2.8594979 5.0429688 3.6445312 C 5.0429688 4.4295646 4.4122107 5.0644531 3.6328125 5.0644531 C 2.8534143 5.0644531 2.2226562 4.4295646 2.2226562 3.6445312 C 2.2226562 2.8594979 2.8534143 2.2226563 3.6328125 2.2226562 z M 10.974609 5.8378906 C 12.608637 5.8378906 13.777344 6.8366704 13.777344 8.9003906 L 13.777344 13.777344 L 11.404297 13.777344 L 11.404297 9.734375 C 11.404297 8.6256282 10.983044 8.0058594 10.105469 8.0058594 C 9.1507808 8.0058594 8.6503906 8.6508184 8.6503906 9.734375 L 8.6503906 13.777344 L 6.3632812 13.777344 L 6.3632812 6.0742188 L 8.6503906 6.0742188 L 8.6503906 7.1113281 C 8.6503906 7.1113281 9.3398298 5.8378906 10.974609 5.8378906 z M 2.4511719 6.0742188 L 4.8378906 6.0742188 L 4.8378906 13.777344 L 2.4511719 13.777344 L 2.4511719 6.0742188 z "
	/>
</svg>
