<svg
	viewBox="0 0 16 16"
	width="16"
	height="16"
	xmlns="http://www.w3.org/2000/svg"
>
	<path
		d="M 8 1.5996094 C 6.0729257 1.5996094 4.5 3.1725351 4.5 5.0996094 L 4.5 6.5996094 C 3.946 6.5996094 3.5 7.0456094 3.5 7.5996094 L 3.5 12.599609 C 3.5 13.153609 3.946 13.599609 4.5 13.599609 L 11.5 13.599609 C 12.054 13.599609 12.5 13.153609 12.5 12.599609 L 12.5 7.5996094 C 12.5 7.0456094 12.054 6.5996094 11.5 6.5996094 L 11.5 5.0996094 C 11.5 3.1725351 9.9270743 1.5996094 8 1.5996094 z M 8 2.5996094 C 9.3866341 2.5996094 10.5 3.7129753 10.5 5.0996094 L 10.5 6.5996094 L 5.5 6.5996094 L 5.5 5.0996094 C 5.5 3.7129753 6.6133659 2.5996094 8 2.5996094 z "
	/>
</svg>
