<svg
   viewBox="0 0 16 16"
   width="16"
   height="16"
   xmlns="http://www.w3.org/2000/svg"
>
   <path
      d="m 12,6.8 c 0,1.1475 -0.3725,2.2075 -1,3.0675 l 3.165,3.1675 c 0.3125,0.3125 0.3125,0.82 0,1.1325 -0.3125,0.3125 -0.82,0.3125 -1.1325,0 L 9.8675,11 C 9.0075,11.6275 7.9475,12 6.8,12 3.9275,12 1.6,9.6725 1.6,6.8 1.6,3.9275 3.9275,1.6 6.8,1.6 9.6725,1.6 12,3.9275 12,6.8 Z m -5.2,3.6 c 1.9875,0 3.6,-1.6125 3.6,-3.6 0,-1.9875 -1.6125,-3.6 -3.6,-3.6 -1.9875,0 -3.6,1.6125 -3.6,3.6 0,1.9875 1.6125,3.6 3.6,3.6 z"
   />
</svg>
