<svg
	viewBox="0 0 16 16"
	width="16"
	height="16"
	xmlns="http://www.w3.org/2000/svg"
>
	<path
		d="m 2.4956247,7.5 a 0.5,0.5 0 0 0 -0.5,0.5 0.5,0.5 0 0 0 0.5,0.5 H 13.503437 a 0.5,0.5 0 0 0 0.5,-0.5 0.5,0.5 0 0 0 -0.5,-0.5 z"
	/>
	<path
		d="m 2.4956247,3.5 a 0.5,0.5 0 0 0 -0.5,0.5 0.5,0.5 0 0 0 0.5,0.5 H 13.503437 a 0.5,0.5 0 0 0 0.5,-0.5 0.5,0.5 0 0 0 -0.5,-0.5 z"
	/>
	<path
		d="m 2.4956247,11.5 a 0.5,0.5 0 0 0 -0.5,0.5 0.5,0.5 0 0 0 0.5,0.5 H 13.503437 a 0.5,0.5 0 0 0 0.5,-0.5 0.5,0.5 0 0 0 -0.5,-0.5 z"
	/>
</svg>
