<svg
	viewBox="0 0 16 16"
	width="16"
	height="16"
	xmlns="http://www.w3.org/2000/svg"
>
	<path
		d="M 2.7421875,2 C 2.3327016,2 2,2.3315467 2,2.7402344 V 13.001953 C 2,13.553162 2.4477153,14 3,14 h 10 c 0.552285,0 1,-0.446838 1,-0.998047 V 2.9980468 C 14,2.4468387 13.552285,2 13,2 H 6 C 5.4477153,2 5,2.4468387 5,2.9980468 v 8.7792972 c 0,0.400677 -0.3251026,0.724609 -0.7265625,0.724609 H 4.2246094 C 3.8248639,12.501953 3.5,12.180216 3.5,11.78125 V 2.7558594 C 3.5,2.3378946 3.1609686,2 2.7421875,2 Z M 7,3 H 8 C 8.554,3 9,3.446 9,4 V 5 C 9,5.554 8.554,6 8,6 H 7 C 6.446,6 6,5.554 6,5 V 4 C 6,3.446 6.446,3 7,3 Z m 3.5,2 h 2 c 0.276145,-7.2e-6 0.500007,0.2238547 0.5,0.5 7e-6,0.2761453 -0.223855,0.5000072 -0.5,0.5 h -2 C 10.223855,6.0000072 9.9999928,5.7761453 10,5.5 9.9999928,5.2238547 10.223855,4.9999928 10.5,5 Z m -4,2 h 6 A 0.5,0.5 0 0 1 13,7.5 0.5,0.5 0 0 1 12.5,8 h -6 A 0.5,0.5 0 0 1 6,7.5 0.5,0.5 0 0 1 6.5,7 Z m 0,2 h 6 A 0.5,0.5 0 0 1 13,9.5 0.5,0.5 0 0 1 12.5,9.9999997 h -6 A 0.5,0.5 0 0 1 6,9.5 0.5,0.5 0 0 1 6.5,9 Z m 0,2 h 6 A 0.5,0.5 0 0 1 13,11.5 0.5,0.5 0 0 1 12.5,12 h -6 A 0.5,0.5 0 0 1 6,11.5 0.5,0.5 0 0 1 6.5,11 Z" />
</svg>
