<svg
	width="16"
	height="16"
	viewBox="0 0 16 16"
	xmlns="http://www.w3.org/2000/svg"
>
	<path
		d="M 8 2 A 6 6 0 0 0 2 8 A 6 6 0 0 0 8 14 A 6 6 0 0 0 14 8 A 6 6 0 0 0 8 2 z M 8 4 C 9.2077858 4 10.181641 5.0157312 10.181641 6.2363281 C 10.181641 7.20164 9.5865217 7.771724 9.1679688 8.1699219 C 8.7494156 8.5681197 8.4817139 8.7919622 8.5 9.4863281 A 0.5 0.5 0 0 1 8.0136719 10 A 0.5 0.5 0 0 1 7.5 9.5136719 C 7.4729238 8.4855226 8.0448192 7.8579172 8.4785156 7.4453125 C 8.9122121 7.0327078 9.1816406 6.8330695 9.1816406 6.2363281 C 9.1816406 5.5392703 8.649899 5 8 5 C 7.3501011 5 6.8183594 5.5392703 6.8183594 6.2363281 A 0.5 0.5 0 0 1 6.3183594 6.7363281 A 0.5 0.5 0 0 1 5.8183594 6.2363281 C 5.8183594 5.0157312 6.7922143 4 8 4 z M 8 11 A 0.5 0.5 0 0 1 8.5 11.5 A 0.5 0.5 0 0 1 8 12 A 0.5 0.5 0 0 1 7.5 11.5 A 0.5 0.5 0 0 1 8 11 z " />
</svg>
