<svg
	width="16"
	height="16"
	viewBox="0 0 16 16"
	xmlns="http://www.w3.org/2000/svg"
>
	<path
		d="M 1.5 0 C 0.669 0 0 0.669 0 1.5 L 0 14.5 C 0 15.331 0.669 16 1.5 16 L 14.5 16 C 15.331 16 16 15.331 16 14.5 L 16 1.5 C 16 0.669 15.331 0 14.5 0 L 1.5 0 z M 8.2988281 2 L 10.367188 2 L 10.367188 2.2636719 C 10.374478 2.3426489 10.384757 2.42184 10.398438 2.5 C 10.541893 3.317827 11.029893 4.0159111 11.708984 4.4394531 C 12.165001 4.7239591 12.692987 4.875815 13.230469 4.875 L 13.230469 5.3105469 L 13.230469 6.9277344 C 12.162689 6.9277344 11.174497 6.5883057 10.367188 6.0117188 L 10.367188 10.203125 C 10.367188 12.299815 8.6660784 14 6.5683594 14 C 5.7856674 14 5.057444 13.76299 4.453125 13.357422 C 3.437698 12.675981 2.7695312 11.517392 2.7695312 10.203125 C 2.7695313 8.1065645 4.4704644 6.40621 6.5683594 6.40625 C 6.7427004 6.40617 6.9171318 6.4197594 7.0898438 6.4433594 L 7.0898438 6.9082031 L 7.0898438 8.5429688 C 6.9236098 8.4902487 6.746365 8.4609375 6.5625 8.4609375 C 5.602849 8.4609375 4.8242188 9.2382571 4.8242188 10.197266 C 4.8242188 10.875327 5.214297 11.462039 5.78125 11.748047 C 6.016324 11.866564 6.281361 11.933594 6.5625 11.933594 C 7.520177 11.933594 8.2955281 11.159343 8.2988281 10.203125 L 8.2988281 2 z "
	/>
</svg>
