<?xml version="1.0" encoding="UTF-8" standalone="no"?>
<!-- Created with Inkscape (http://www.inkscape.org/) -->

<svg
   width="16"
   height="16"
   viewBox="0 0 16 16"
   version="1.1"
   id="svg1"
   xmlns="http://www.w3.org/2000/svg"
   xmlns:svg="http://www.w3.org/2000/svg">
  <defs
     id="defs1" />
  <path
     id="rect1"
     style="stroke-width:1.5;stroke-linecap:round;stroke-linejoin:round;paint-order:fill markers stroke"
     d="M 1.5 0 C 0.669 0 0 0.669 0 1.5 L 0 14.5 C 0 15.331 0.669 16 1.5 16 L 14.5 16 C 15.331 16 16 15.331 16 14.5 L 16 1.5 C 16 0.669 15.331 0 14.5 0 L 1.5 0 z M 8 3.8007812 C 8 3.8007813 11.752074 3.799876 12.6875 4.0507812 C 13.204124 4.1890758 13.61173 4.5946998 13.75 5.1113281 C 13.999945 6.0467871 14 8 14 8 C 14 8 14.00092 9.9532035 13.75 10.888672 C 13.61173 11.405295 13.204124 11.810949 12.6875 11.949219 C 11.752074 12.200139 8 12.199219 8 12.199219 C 8 12.199219 4.2479633 12.200139 3.3125 11.949219 C 2.795876 11.810949 2.3882944 11.405295 2.25 10.888672 C 1.9990947 9.9532035 2 8 2 8 C 2 8 1.9990947 6.0467871 2.25 5.1113281 C 2.3882944 4.5946998 2.795876 4.1890757 3.3125 4.0507812 C 4.2479633 3.799876 8 3.8007812 8 3.8007812 z M 6.7988281 6.2011719 L 6.7988281 9.8007812 L 9.9160156 8 L 6.7988281 6.2011719 z " />
</svg>
