<svg
   viewBox="0 0 189.37283 42"
   xmlns="http://www.w3.org/2000/svg"
   width="189.373"
   height="42"
>
   <path
      d="M 7.0041065,1.137506 H 21.40761 L 20.31148,7.3542058 C 24.717233,2.578106 29.037633,6e-6 35.027298,6e-6 c 10.461735,0 14.3066,6.1406331 12.381835,17.058066 l -4.196967,23.80416 h -15.7689 L 31.1458,19.862972 c 0.6951,-3.942633 0.248733,-7.430033 -4.224035,-7.430033 -4.85198,0 -6.68885,3.108233 -7.584545,8.188436 L 15.768783,40.862232 H 0 L 7.0041065,1.137506"
   />
   <path
      d="m 64.721998,28.505125 c -0.280933,1.591427 0.111533,2.804923 1.025967,3.63937 0.8519,0.758333 2.136166,1.211887 3.652366,1.211887 2.4262,0 5.138,-0.756887 5.6322,-3.56209 1.122567,-6.3679 -24.108233,-1.289167 -21.394566,-16.67862 C 55.428565,2.9565725 66.487398,6e-6 74.751131,6e-6 c 8.6429,0 18.4541,1.9712 17.505833,12.508766 H 77.928665 c 0.07513,-1.2887 -0.2954,-2.198 -1.008467,-2.8804996 -0.714,-0.6820333 -1.797133,-0.9853666 -3.0107,-0.9853666 -2.729067,0 -4.6193,0.8334666 -4.9672,2.8049002 -0.975567,5.534433 24.773466,1.819533 22.153133,16.678153 -1.4574,8.262846 -9.269633,13.874046 -23.825433,13.874046 -9.0972,0 -18.609265,-2.804923 -17.558332,-13.49488 h 15.010332"
   />
   <path
      d="m 124.6406,16.299739 c 0.2317,-1.744633 -0.13417,-3.108233 -0.94524,-4.0943 -0.79916,-1.0612 -2.06966,-1.592033 -3.81266,-1.592033 -5.91454,0 -7.98117,6.141566 -8.81137,10.840969 -1.05583,5.98892 0.5236,9.931507 5.14873,9.931507 4.0929,0 6.1803,-2.804923 7.18247,-5.913087 h 15.92033 c -1.73716,5.98892 -5.20286,10.15903 -9.688,12.8121 -4.396,2.577337 -9.75216,3.71511 -15.2859,3.71511 -12.81233,0 -21.397596,-7.202347 -19.031829,-20.621463 C 97.709264,7.8085058 108.63836,6e-6 121.75403,6e-6 c 10.6127,0 19.81793,4.5485998 18.88297,16.299733 h -15.9964"
   />
   <path
      d="m 173.31066,16.299739 c 0.23194,-1.744633 -0.13393,-3.108233 -0.945,-4.0943 -0.7994,-1.0612 -2.06966,-1.592033 -3.81266,-1.592033 -5.91477,0 -7.98304,6.141566 -8.81137,10.840969 -1.0563,5.98892 0.5236,9.931507 5.14873,9.931507 4.0929,0 6.18007,-2.804923 7.182,-5.913087 h 15.92057 c -1.73858,5.98892 -5.20288,10.15903 -9.688,12.8121 -4.396,2.577337 -9.75193,3.71511 -15.2859,3.71511 -12.8121,0 -21.399,-7.202347 -19.03183,-20.621463 C 146.37933,7.8085058 157.30843,6e-6 170.4227,6e-6 c 10.6141,0 19.81955,4.5485998 18.8846,16.299733 h -15.99664"
   />
</svg>
